<svg width="114" height="30" viewBox="0 0 114 30" fill="none" xmlns="http://www.w3.org/2000/svg">
<path d="M24.9267 21.6056L23.6072 20.7436L20.3792 18.6354C19.557 19.9612 18.4764 21.108 17.2017 22.0075C16.6485 22.4009 16.0614 22.7443 15.4474 23.0338C14.0672 23.6824 12.5727 24.0527 11.0493 24.1236C9.52596 24.1945 8.00354 23.9645 6.56905 23.4469C5.13455 22.9293 3.81608 22.1342 2.68894 21.1069C1.56181 20.0797 0.648097 18.8404 0 17.46C0.506693 20.4176 1.89263 23.1541 3.97716 25.3126C6.06169 27.4711 8.74814 28.9517 11.6863 29.5612C14.6245 30.1707 17.6782 29.881 20.4494 28.7297C23.2205 27.5785 25.5806 25.6191 27.2219 23.1071L24.9267 21.6056Z" fill="url(#paint0_linear_1336_4547)"/>
<path d="M14.7194 4.15807e-07C11.7874 0.00123964 8.9206 0.864589 6.47557 2.48262C4.03055 4.10065 2.11528 6.40193 0.968092 9.1001C0.335006 10.864 0.203204 12.7689 0.587321 14.6032C0.971438 16.4376 1.85644 18.1295 3.14406 19.4912C4.43168 20.853 6.07152 21.8312 7.88149 22.3172C9.69147 22.8033 11.6007 22.7782 13.3973 22.2447C11.4345 21.2734 9.79162 19.7593 8.66369 17.8822C7.53576 16.005 6.97016 13.8436 7.03403 11.6546C7.09791 9.46552 7.78857 7.34078 9.02404 5.53258C10.2595 3.72438 11.9879 2.30866 14.004 1.45349C15.4551 0.834258 17.0168 0.51607 18.5945 0.518201H18.6248C17.3516 0.173935 16.0383 -0.000310672 14.7194 4.15807e-07V4.15807e-07Z" fill="url(#paint1_linear_1336_4547)"/>
<path d="M25.7835 4.90394C24.5197 3.60953 22.9318 2.67789 21.1853 2.20615C19.4389 1.73442 17.5979 1.73987 15.8543 2.22194C15.1839 2.40575 14.5348 2.65994 13.918 2.98028C12.2982 3.81313 10.9334 5.06805 9.96788 6.61244C9.00236 8.15683 8.47192 9.93335 8.43262 11.7543C8.94432 10.6085 9.76266 9.62641 10.7973 8.91637C11.832 8.20633 13.0427 7.79598 14.2958 7.7306C15.549 7.66522 16.7958 7.94737 17.8987 8.54589C19.0016 9.14441 19.9177 10.036 20.5459 11.1223V11.1426L21.8831 10.2679L27.2167 6.78463C26.7892 6.12098 26.31 5.49213 25.7835 4.90394Z" fill="url(#paint2_linear_1336_4547)"/>
<path d="M29.5171 28.3569V23.003H32.3305V23.7058H30.3336V25.278H32.1485V25.9681H30.3336V27.6567H32.3255V28.3594L29.5171 28.3569Z" fill="#178EE6"/>
<path d="M35.5535 28.3569V25.6901C35.5535 25.225 35.2729 24.9318 34.7168 24.9318C34.4675 24.9271 34.2193 24.9665 33.9837 25.048V28.3519H33.1748V24.5602C33.6635 24.369 34.1845 24.2737 34.7092 24.2796C35.8265 24.2796 36.3674 24.7674 36.3674 25.6117V28.3519L35.5535 28.3569Z" fill="#178EE6"/>
<path d="M36.5898 30.0003V29.3229C37.0575 29.1737 37.4796 28.7592 37.4796 27.8921V24.3532H38.2936V27.8921C38.2936 29.3052 37.4948 29.8461 36.5898 30.0003ZM37.8866 23.6404C37.7966 23.6364 37.7097 23.6061 37.6368 23.5532C37.5638 23.5003 37.508 23.4272 37.4763 23.3428C37.4445 23.2585 37.4382 23.1667 37.4582 23.0788C37.4782 22.9909 37.5235 22.9109 37.5886 22.8485C37.6537 22.7862 37.7356 22.7443 37.8243 22.7282C37.9129 22.712 38.0043 22.7222 38.0872 22.7576C38.1701 22.7929 38.2408 22.8518 38.2905 22.9269C38.3403 23.0021 38.3668 23.0902 38.3669 23.1803C38.3636 23.3048 38.3113 23.423 38.2213 23.5091C38.1314 23.5952 38.0111 23.6424 37.8866 23.6404Z" fill="#178EE6"/>
<path d="M40.9149 28.4374C39.7825 28.4374 39.1606 27.5425 39.1606 26.357C39.1606 25.1714 39.7825 24.2842 40.9149 24.2842C42.0474 24.2842 42.6692 25.1714 42.6692 26.357C42.6692 27.5425 42.0474 28.4374 40.9149 28.4374ZM40.9149 24.9288C40.2855 24.9288 39.9746 25.4899 39.9746 26.3494C39.9746 27.2089 40.2855 27.7801 40.9149 27.7801C41.5444 27.7801 41.8553 27.2089 41.8553 26.3494C41.8553 25.4899 41.5444 24.9288 40.9149 24.9288Z" fill="#178EE6"/>
<path d="M44.8255 29.9492H43.9837L44.5828 28.3566L43.0889 24.3652H43.9837L44.8507 27.075C44.9098 27.2726 44.957 27.4735 44.9923 27.6767H44.9948C45.0247 27.4731 45.0695 27.272 45.1288 27.075L46.006 24.3652H46.9084L44.8255 29.9492Z" fill="#178EE6"/>
<path d="M49.5298 28.3569V22.543H50.3437V28.3569H49.5298Z" fill="#178EE6"/>
<path d="M51.7869 23.64C51.697 23.6356 51.6104 23.6049 51.5378 23.5517C51.4652 23.4985 51.4098 23.4252 51.3784 23.3409C51.3471 23.2565 51.3412 23.1648 51.3614 23.0771C51.3816 22.9894 51.4271 22.9096 51.4923 22.8475C51.5575 22.7854 51.6394 22.7438 51.728 22.7278C51.8165 22.7118 51.9078 22.7222 51.9906 22.7576C52.0733 22.7929 52.1439 22.8518 52.1935 22.9269C52.2431 23.002 52.2696 23.09 52.2697 23.18C52.2684 23.242 52.2549 23.303 52.2299 23.3598C52.2049 23.4165 52.1689 23.4677 52.124 23.5104C52.0791 23.5532 52.0263 23.5867 51.9684 23.6089C51.9106 23.6311 51.8489 23.6417 51.7869 23.64ZM51.3799 28.3569V24.3655H52.1939V28.3569H51.3799Z" fill="#178EE6"/>
<path d="M55.0758 23.18C54.6183 23.18 54.2846 23.3721 54.2846 23.8701V24.3756H55.1062V24.9823H54.277V28.367H53.4833V24.9722H52.9575V24.3655H53.4833V23.86C53.4833 22.9398 54.1051 22.5177 54.9292 22.5177C55.0137 22.5182 55.0981 22.5232 55.182 22.5329V23.18H55.0758Z" fill="#178EE6"/>
<path d="M59.0169 26.3423L56.3703 26.7138C56.3763 26.866 56.413 27.0154 56.4783 27.153C56.5435 27.2906 56.636 27.4136 56.7501 27.5144C56.8642 27.6153 56.9976 27.692 57.1421 27.7399C57.2867 27.7878 57.4395 27.806 57.5912 27.7932C57.9738 27.7936 58.3515 27.7072 58.6959 27.5404L58.9335 28.1471C58.4952 28.3411 58.0199 28.4368 57.5407 28.4277C56.2768 28.4277 55.5791 27.6213 55.5791 26.3473C55.5791 25.1264 56.2591 24.2745 57.3764 24.2745C58.4153 24.2745 59.0296 24.9545 59.0296 26.0288C59.0245 26.135 59.0245 26.2386 59.0169 26.3423ZM57.3587 24.8761C56.7368 24.8761 56.3273 25.3514 56.3147 26.1805L58.2459 25.9125C58.2384 25.2174 57.887 24.8761 57.3587 24.8761Z" fill="#178EE6"/>
<path d="M62.2245 23.6404C62.1345 23.6364 62.0476 23.6061 61.9747 23.5532C61.9017 23.5003 61.8459 23.4272 61.8142 23.3428C61.7824 23.2585 61.7761 23.1667 61.7961 23.0788C61.8161 22.9909 61.8614 22.9109 61.9265 22.8485C61.9916 22.7862 62.0735 22.7443 62.1622 22.7282C62.2508 22.712 62.3422 22.7222 62.4251 22.7576C62.508 22.7929 62.5787 22.8518 62.6284 22.9269C62.6782 23.0021 62.7047 23.0902 62.7048 23.1803C62.7015 23.3048 62.6492 23.423 62.5592 23.5091C62.4693 23.5952 62.349 23.6424 62.2245 23.6404ZM61.815 28.3573V24.3659H62.6315V28.3573H61.815Z" fill="#178EE6"/>
<path d="M66.0237 28.3569V25.6901C66.0237 25.225 65.7406 24.9317 65.187 24.9317C64.9377 24.9269 64.6895 24.9663 64.4539 25.048V28.3519H63.645V24.5602C64.1337 24.3688 64.6546 24.2735 65.1794 24.2796C66.2967 24.2796 66.8376 24.7674 66.8376 25.6117V28.3519L66.0237 28.3569Z" fill="#178EE6"/>
<path d="M71.1779 29.9492H70.326L70.9251 28.3566L69.4312 24.3652H70.3336L71.2006 27.075C71.2595 27.2725 71.3059 27.4734 71.3396 27.6767H71.3548C71.3847 27.4731 71.4295 27.272 71.4888 27.075L72.3634 24.3652H73.2658L71.1779 29.9492Z" fill="#178EE6"/>
<path d="M75.4297 28.4374C74.2972 28.4374 73.6729 27.5425 73.6729 26.357C73.6729 25.1714 74.2972 24.2842 75.4297 24.2842C76.5621 24.2842 77.184 25.1714 77.184 26.357C77.184 27.5425 76.5621 28.4374 75.4297 28.4374ZM75.4297 24.9288C74.8002 24.9288 74.4893 25.4899 74.4893 26.3494C74.4893 27.2089 74.8002 27.7801 75.4297 27.7801C76.0591 27.7801 76.37 27.2089 76.37 26.3494C76.37 25.4899 76.0591 24.9288 75.4297 24.9288Z" fill="#178EE6"/>
<path d="M79.6436 28.4375C78.592 28.4375 78.0283 28.0002 78.0283 27.0017V24.3652H78.8372V27.0169C78.8372 27.5225 79.1102 27.7752 79.6436 27.7752C79.8852 27.7817 80.1259 27.744 80.3539 27.664V24.3779H81.1628V28.1696C80.6802 28.3625 80.163 28.4538 79.6436 28.4375Z" fill="#178EE6"/>
<path d="M83.9991 24.9874C83.8658 24.9557 83.7291 24.9404 83.5921 24.9419C83.3778 24.938 83.1645 24.9731 82.9627 25.0455V28.3569H82.1538V24.5652C82.6482 24.3753 83.1738 24.2801 83.7034 24.2846C83.8538 24.2819 84.0043 24.2912 84.1533 24.3124L83.9991 24.9874Z" fill="#178EE6"/>
<path d="M88.6123 24.9874C88.479 24.9556 88.3423 24.9403 88.2053 24.9419C87.991 24.938 87.7777 24.9731 87.5759 25.0455V28.3569H86.7695V24.5652C87.263 24.3754 87.7878 24.2802 88.3165 24.2846C88.4679 24.2819 88.6192 24.2912 88.769 24.3124L88.6123 24.9874Z" fill="#178EE6"/>
<path d="M89.886 23.64C89.7962 23.6356 89.7095 23.6049 89.6369 23.5517C89.5643 23.4985 89.5089 23.4252 89.4776 23.3409C89.4462 23.2565 89.4403 23.1648 89.4605 23.0771C89.4808 22.9894 89.5263 22.9096 89.5914 22.8475C89.6566 22.7854 89.7385 22.7438 89.8271 22.7278C89.9156 22.7118 90.007 22.7222 90.0897 22.7576C90.1725 22.7929 90.243 22.8518 90.2926 22.9269C90.3422 23.002 90.3687 23.09 90.3689 23.18C90.3675 23.242 90.354 23.303 90.329 23.3598C90.304 23.4165 90.268 23.4677 90.2231 23.5104C90.1783 23.5532 90.1254 23.5867 90.0675 23.6089C90.0097 23.6311 89.948 23.6417 89.886 23.64ZM89.4841 28.3569V24.3655H90.2981V28.3569H89.4841Z" fill="#178EE6"/>
<path d="M92.9145 28.4383C92.0272 28.4383 91.1602 27.8013 91.1602 26.3579C91.1602 24.9145 92.0272 24.2851 92.9145 24.2851C93.2751 24.2736 93.6312 24.3686 93.9382 24.5581L93.6703 25.1446C93.4791 25.0161 93.2535 24.9482 93.0231 24.9499C92.4898 24.9499 92.012 25.3721 92.012 26.3503C92.012 27.3286 92.5176 27.7583 93.0231 27.7583C93.2548 27.7607 93.4819 27.6938 93.6753 27.5662L93.9433 28.1653C93.6358 28.3581 93.2771 28.4533 92.9145 28.4383Z" fill="#178EE6"/>
<path d="M97.0675 28.3569V25.7053C97.0675 25.1997 96.7415 24.9469 96.2081 24.9469C95.9596 24.9501 95.7156 25.0144 95.4978 25.134V28.362H94.6914V22.548H95.4978V24.5197C95.7771 24.3844 96.0823 24.3111 96.3926 24.3049C97.3279 24.3049 97.8815 24.7776 97.8815 25.6446V28.362L97.0675 28.3569Z" fill="#178EE6"/>
<path d="M101.261 28.3569V25.6901C101.261 25.225 100.981 24.9317 100.425 24.9317C100.175 24.9274 99.9273 24.9667 99.6916 25.048V28.3519H98.8853V24.5602C99.373 24.3687 99.8932 24.2734 100.417 24.2796C101.537 24.2796 102.078 24.7674 102.078 25.6117V28.3519L101.261 28.3569Z" fill="#178EE6"/>
<path d="M106.365 26.3423L103.714 26.7138C103.72 26.8663 103.756 27.0159 103.822 27.1537C103.887 27.2914 103.98 27.4145 104.094 27.5154C104.209 27.6163 104.342 27.693 104.487 27.7407C104.632 27.7885 104.785 27.8063 104.937 27.7932C105.319 27.7933 105.696 27.7068 106.039 27.5404L106.277 28.1471C105.839 28.3411 105.363 28.4368 104.884 28.4277C103.62 28.4277 102.922 27.6213 102.922 26.3473C102.922 25.1264 103.602 24.2745 104.722 24.2745C105.759 24.2745 106.373 24.9545 106.373 26.0288C106.373 26.135 106.373 26.2386 106.365 26.3423ZM104.707 24.8761C104.085 24.8761 103.678 25.3514 103.663 26.1805L105.594 25.9125C105.589 25.2174 105.24 24.8761 104.707 24.8761Z" fill="#178EE6"/>
<path d="M108.233 28.4378C107.802 28.4385 107.376 28.3426 106.987 28.1572L107.262 27.5354C107.555 27.6896 107.879 27.776 108.21 27.7882C108.648 27.7882 108.936 27.5733 108.936 27.2422C108.936 26.911 108.632 26.7366 108.225 26.59C107.692 26.3903 107.09 26.1451 107.09 25.3969C107.09 24.7371 107.596 24.2796 108.491 24.2796C108.896 24.2714 109.297 24.3681 109.654 24.5602L109.401 25.1239C109.15 24.9794 108.868 24.8978 108.579 24.8863C108.157 24.8863 107.92 25.1087 107.92 25.3918C107.92 25.7558 108.218 25.8797 108.61 26.0288C109.166 26.2361 109.78 26.4661 109.78 27.2447C109.78 27.9727 109.232 28.4378 108.233 28.4378Z" fill="#178EE6"/>
<path d="M111.549 28.4378C111.119 28.4384 110.694 28.3425 110.306 28.1572L110.579 27.5354C110.872 27.6896 111.196 27.776 111.527 27.7882C111.964 27.7882 112.255 27.5733 112.255 27.2422C112.255 26.911 111.949 26.7366 111.542 26.59C111.008 26.3903 110.409 26.1451 110.409 25.3969C110.409 24.7371 110.915 24.2796 111.81 24.2796C112.215 24.2717 112.615 24.3684 112.973 24.5602L112.72 25.1239C112.469 24.9793 112.187 24.8978 111.898 24.8863C111.476 24.8863 111.238 25.1087 111.238 25.3918C111.238 25.7558 111.534 25.8797 111.929 26.0288C112.482 26.2361 113.099 26.4661 113.099 27.2447C113.099 27.9727 112.55 28.4378 111.549 28.4378Z" fill="#178EE6"/>
<path d="M34.3782 11.881C34.0159 11.7816 33.6417 11.7322 33.266 11.7344C32.8451 11.7264 32.4263 11.7949 32.0299 11.9366V19.7728H29.5552V10.4528C30.8354 9.97372 32.1924 9.73298 33.5592 9.74246C33.9822 9.74013 34.4048 9.77056 34.8231 9.83346L34.3782 11.881Z" fill="#1169B0"/>
<path d="M40.0708 19.9899C37.2143 19.9899 35.6294 17.7882 35.6294 14.8584C35.6294 11.9287 37.2143 9.74216 40.0708 9.74216C42.9272 9.74216 44.5121 11.9262 44.5121 14.8584C44.5121 17.7907 42.9297 19.9899 40.0708 19.9899ZM40.0708 11.6911C38.7613 11.6911 38.1066 12.8741 38.1066 14.8407C38.1066 16.8074 38.7613 17.9702 40.0708 17.9702C41.3802 17.9702 42.0374 16.8048 42.0374 14.8407C42.0374 12.8766 41.3827 11.6911 40.0708 11.6911Z" fill="#1169B0"/>
<path d="M57.035 19.7725H54.4693L52.9526 14.1835C52.8301 13.6987 52.7389 13.2064 52.6796 12.7098H52.6417C52.5719 13.206 52.4748 13.698 52.351 14.1835L50.8343 19.7725H48.2812L45.4248 9.9621H47.9172L49.3202 15.9682C49.4311 16.4978 49.5155 17.0327 49.5729 17.5708H49.6083C49.6083 17.5708 49.7549 16.6962 49.9369 15.9682L51.5193 9.9621H53.7944L55.3793 15.9682C55.5613 16.6962 55.7054 17.5708 55.7054 17.5708H55.7433C55.7433 17.5708 55.8343 16.6962 55.9961 15.9682L57.399 9.9621H59.8914L57.035 19.7725Z" fill="#1169B0"/>
<path d="M65.6976 19.9895C62.5303 19.9895 60.8013 18.1164 60.8013 14.9339C60.8013 11.9005 62.3837 9.87828 65.3867 9.87828C65.8617 9.87511 66.3344 9.9424 66.7896 10.078V5.48242H69.2821V19.2817C68.5717 19.6634 67.189 19.9895 65.6976 19.9895ZM66.7896 11.9258C66.4199 11.8015 66.032 11.74 65.642 11.7438C64.095 11.7438 63.276 13.038 63.276 14.8934C63.276 16.8778 64.1127 18.0431 65.642 18.0431C66.0339 18.0513 66.4236 17.9835 66.7896 17.8434V11.9258Z" fill="#1169B0"/>
<path d="M83.3343 19.7722H80.8393L79.037 12.1331C78.8373 11.2585 78.7109 10.2575 78.7109 10.2575H78.673C78.673 10.2575 78.5466 11.2686 78.3469 12.1331L76.5623 19.7772H74.0648L70.8115 6.59473H73.3949L75.1063 14.8758C75.2706 15.6594 75.397 16.6225 75.397 16.6225H75.4349C75.4349 16.6225 75.5436 15.6594 75.7256 14.8758L77.6366 6.59473H79.765L81.676 14.8758C81.858 15.6594 81.9693 16.6225 81.9693 16.6225H82.0046C82.0046 16.6225 82.1336 15.6594 82.2953 14.8758L84.0067 6.59473H86.5926L83.3343 19.7722Z" fill="#1169B0"/>
<path d="M91.5218 19.9899C88.6654 19.9899 87.083 17.7882 87.083 14.8584C87.083 11.9287 88.6654 9.74216 91.5218 9.74216C94.3783 9.74216 95.9632 11.9262 95.9632 14.8584C95.9632 17.7907 94.3808 19.9899 91.5218 19.9899ZM91.5218 11.6911C90.2124 11.6911 89.5577 12.8741 89.5577 14.8407C89.5577 16.8074 90.2124 17.9702 91.5218 17.9702C92.8312 17.9702 93.4885 16.8048 93.4885 14.8407C93.4885 12.8766 92.8338 11.6911 91.5218 11.6911Z" fill="#1169B0"/>
<path d="M102.662 11.881C102.3 11.7817 101.927 11.7324 101.552 11.7344C101.131 11.7264 100.711 11.7949 100.314 11.9366V19.7728H97.8389V10.4528C99.119 9.97372 100.476 9.73298 101.843 9.74246C102.266 9.74013 102.688 9.77056 103.107 9.83346L102.662 11.881Z" fill="#1169B0"/>
<path d="M110.688 19.7721L107.149 14.8201H107.113V19.7721H104.656V5.48242H107.113V14.2564H107.149L110.389 9.95917H113.246L109.707 14.5446L113.499 19.7721H110.688Z" fill="#1169B0"/>
<g style="mix-blend-mode:screen" opacity="0.5">
<path d="M15.4474 23.0331C12.6624 24.3443 9.47065 24.4959 6.57391 23.4545C3.67717 22.413 1.31257 20.2639 0 17.4795C0.782903 19.8601 2.21508 21.9748 4.13517 23.5853C6.05526 25.1957 8.38694 26.238 10.8675 26.5945C13.3481 26.9511 15.8789 26.6079 18.1749 25.6035C20.4709 24.5991 22.4407 22.9734 23.8625 20.9097L23.6097 20.7429L20.3792 18.6347C19.557 19.9605 18.4764 21.1073 17.2017 22.0068C16.6485 22.4002 16.0614 22.7436 15.4474 23.0331Z" fill="#16B14B"/>
</g>
<g style="mix-blend-mode:screen" opacity="0.5">
<path d="M17.3937 0.467651C14.5754 0.467907 11.8195 1.29729 9.46911 2.85249C7.11877 4.4077 5.2779 6.62 4.17578 9.21386C3.649 10.6845 3.48349 12.2602 3.69318 13.8081C3.90288 15.3561 4.48165 16.831 5.3807 18.1084C6.27975 19.3859 7.47273 20.4285 8.85909 21.1483C10.2455 21.8682 11.7846 22.2442 13.3467 22.2447H13.3972C11.4344 21.2734 9.79153 19.7593 8.6636 17.8822C7.53567 16.005 6.97007 13.8436 7.03394 11.6546C7.09781 9.46553 7.78848 7.34079 9.02395 5.53259C10.2594 3.72438 11.9878 2.30866 14.0039 1.4535C15.4536 0.835472 17.0134 0.51732 18.5893 0.518207C18.2001 0.485346 17.7956 0.467651 17.3937 0.467651Z" fill="#F27227"/>
</g>
<g style="mix-blend-mode:screen" opacity="0.5">
<path d="M23.8854 8.21031C22.8872 6.8543 21.5144 5.81962 19.9358 5.23355C18.3573 4.64747 16.6419 4.53556 15.0006 4.91157C13.3593 5.28758 11.8637 6.13513 10.6977 7.34995C9.53179 8.56477 8.74633 10.0939 8.43799 11.7492C8.95072 10.605 9.76941 9.62455 10.8038 8.91593C11.8382 8.2073 13.0482 7.79802 14.3004 7.73319C15.5526 7.66835 16.7983 7.95049 17.9004 8.5485C19.0025 9.14651 19.918 10.0372 20.5462 11.1223V11.1426L21.8834 10.2679L24.2115 8.75126C24.1129 8.55915 24.0143 8.3822 23.8854 8.21031Z" fill="#1169B0"/>
</g>
<defs>
<linearGradient id="paint0_linear_1336_4547" x1="23.2154" y1="20.7006" x2="2.96764" y2="24.6718" gradientUnits="userSpaceOnUse">
<stop offset="0.45" stop-color="#4DB045"/>
<stop offset="1" stop-color="#5FDA55"/>
</linearGradient>
<linearGradient id="paint1_linear_1336_4547" x1="0.37153" y1="11.3322" x2="13.281" y2="11.3322" gradientUnits="userSpaceOnUse">
<stop stop-color="#FAAF40"/>
<stop offset="0.18" stop-color="#F5A438"/>
<stop offset="0.49" stop-color="#E98624"/>
<stop offset="0.9" stop-color="#D55604"/>
<stop offset="0.94" stop-color="#D35100"/>
</linearGradient>
<linearGradient id="paint2_linear_1336_4547" x1="9.85577" y1="6.16531" x2="21.964" y2="8.08392" gradientUnits="userSpaceOnUse">
<stop offset="0.07" stop-color="#33B2C1"/>
<stop offset="0.89" stop-color="#1169B0"/>
</linearGradient>
</defs>
</svg>
