<svg width="34" height="22" viewBox="0 0 34 22" fill="none" xmlns="http://www.w3.org/2000/svg">
<g clip-path="url(#clip0_2487_10305)">
<path d="M6.68439 4.00089C4.75756 4.00089 3.12259 5.25793 2.55021 7.0013C2.53888 7.04111 2.52471 7.08093 2.51338 7.1179L2.41703 7.49331L0 17.999H6.08934C7.90849 17.999 9.45845 16.8415 10.0478 15.2204L10.2774 14.2193L12.6292 3.99805H6.68439V4.00089Z" fill="#08509F"/>
<path d="M18.1691 0.5C16.18 0.5 14.5025 1.84236 13.984 3.67389C13.9443 3.8104 13.9131 3.94976 13.8876 4.09196L9.88379 21.5H15.8286C17.866 21.5 19.5746 20.0951 20.0506 18.1981H20.0535L24.1196 0.5H18.1691Z" fill="#F27123"/>
<path d="M28.0555 4.00195C26.1967 4.00195 24.6099 5.17367 23.9865 6.82034C23.9553 6.90566 23.8448 7.25262 23.8448 7.25262L21.3711 18.0029H27.3159C29.3589 18.0029 31.0732 16.5895 31.5408 14.684C31.5408 14.684 31.5408 14.684 31.5408 14.6868L33.9975 4.00479H28.0555V4.00195Z" fill="#51B748"/>
<path d="M4.03217 7.8765C3.69781 8.15521 3.48246 8.49364 3.41728 8.76382L2.15918 14.4632H2.23002C2.62105 14.4632 2.98942 14.3238 3.32378 14.0479C3.66097 13.7721 3.87349 13.4336 3.95566 13.044L4.27869 11.5964H6.97908C7.37011 11.5964 7.74131 11.4571 8.07851 11.1812C8.4157 10.9053 8.63105 10.5641 8.71606 10.1716L8.73023 10.1005H4.61305L4.86524 8.96006H8.76706C9.1581 8.96006 9.52646 8.8207 9.86366 8.54768C10.198 8.27181 10.4049 7.92769 10.4955 7.53806L10.5125 7.46696H5.12593C4.73489 7.46127 4.36653 7.60063 4.03217 7.8765Z" fill="white"/>
<path d="M31.52 7.79972C31.3047 7.58358 31.0213 7.47266 30.6813 7.47266H25.2975L25.289 7.52101C25.2691 7.62624 25.2578 7.72578 25.2578 7.81963C25.2578 8.14953 25.3683 8.4254 25.5837 8.64438C25.8019 8.86053 26.0824 8.97144 26.4252 8.97144H27.587L26.4196 14.4632H26.4932C26.8843 14.4632 27.2498 14.3238 27.5842 14.0508C27.9185 13.7749 28.1254 13.4365 28.2076 13.044L29.0718 8.9686H31.809L31.8175 8.92025C31.8374 8.82071 31.8487 8.71548 31.8487 8.6131C31.8459 8.28889 31.7354 8.01586 31.52 7.79972Z" fill="white"/>
<path d="M19.7101 7.46272H16.0718L16.0746 7.45703H14.5785L13.0938 14.4646H13.1646C13.5556 14.4646 13.924 14.3253 14.2555 14.0494C14.587 13.7735 14.7966 13.4351 14.8788 13.0455L15.1821 11.6064H18.8544C19.2454 11.6064 19.6109 11.4671 19.9452 11.194C20.2767 10.921 20.4894 10.5797 20.5772 10.1816L20.8521 8.916C20.8719 8.81646 20.8832 8.71408 20.8832 8.60885C20.8832 8.28463 20.7727 8.01161 20.5517 7.79262C20.3364 7.57364 20.0502 7.46272 19.7101 7.46272ZM15.7488 8.9615H19.3531L19.1038 10.1076H15.4995L15.7488 8.9615Z" fill="white"/>
</g>
<defs>
<clipPath id="clip0_2487_10305">
<rect width="34" height="21" fill="white" transform="translate(0 0.5)"/>
</clipPath>
</defs>
</svg>
